<?xml version="1.0" encoding="UTF-8"?>
<svg id="Layer_1" data-name="Layer 1" xmlns="http://www.w3.org/2000/svg" viewBox="0 0 250 250">
  <defs>
    <style>
      .cls-1 {
        stroke-linecap: round;
        stroke-linejoin: round;
      }

      .cls-1, .cls-2 {
        fill: #cc5cb4;
        stroke: #5e3d56;
        stroke-width: 10px;
      }

      .cls-2, .cls-3, .cls-4 {
        stroke-miterlimit: 10;
      }

      .cls-3 {
        fill: #ba6aa9;
        stroke: #ba6aa9;
      }

      .cls-3, .cls-4 {
        font-family: ArialRoundedMTBold, 'Arial Rounded MT Bold';
        font-size: 24.57px;
        letter-spacing: .2em;
        stroke-width: 2px;
      }

      .cls-4 {
        fill: #54314d;
        stroke: #54314d;
      }
    </style>
  </defs>
  <g>
    <path class="cls-2" d="M84.92,135.16c1.12,12.15-5.02,17.91-13.36,18.69-8.34.77-15.73-3.75-16.85-15.89-1.12-12.15,4.73-22.62,13.07-23.39s16.01,8.45,17.14,20.6Z"/>
    <path class="cls-2" d="M123.09,113.87c-1.77,12.89-9.54,17.4-18.39,16.18s-15.43-7.69-13.66-20.58c1.77-12.89,10.38-22.35,19.23-21.14,8.85,1.22,14.59,12.65,12.82,25.54Z"/>
    <path class="cls-2" d="M165.13,119.62c-1.65,12.01-8.89,16.21-17.14,15.07-8.25-1.13-14.38-7.17-12.73-19.18,1.65-12.01,9.67-20.83,17.92-19.69s13.59,11.79,11.94,23.79Z"/>
    <path class="cls-2" d="M194.14,154.69c-3.54,12.36-11.77,15.68-20.26,13.25-8.49-2.43-14.02-9.69-10.48-22.05,3.54-12.36,13.29-20.42,21.78-17.99,8.49,2.43,12.5,14.42,8.97,26.79Z"/>
    <path class="cls-1" d="M75.47,168.64c6.14-5.66,13.77-11.87,23-17.89,7.8-5.09,15.24-9.06,21.91-12.17.48-.36,3.23-2.41,7.08-1.84,1.47.22,2.52.8,4.23,1.75,1.64.91,3.74,2.27,5.95,4.3,1.14,1.31,2.86,3.29,4.98,5.68,5.54,6.26,7.76,8.34,9.64,10.69,6.38,7.99,10.84,15.66,13.93,21.94,2.41,5.35,2.3,11.03-.53,14.65-.62.79-2.4,3.07-5.59,3.79-1.45.32-3.03.3-4.68-.17-3.67-2.17-8.07-4.41-13.16-6.4-7.65-2.99-14.64-4.54-20.32-5.36l-2.52-.35c-4.6-.45-9.73-.7-15.33-.57-8.32.21-15.69,1.23-21.88,2.49-.67-.12-6.29-1.18-8.95-6.33-2.31-4.47-1.44-10.18,2.24-14.21Z"/>
  </g>
  <g>
    <text class="cls-4" transform="translate(65.22 68.45)"><tspan x="0" y="0">SWIPER</tspan></text>
    <text class="cls-3" transform="translate(62.63 68.13)"><tspan x="0" y="0">SWIPER</tspan></text>
  </g>
</svg>