<?xml version="1.0" encoding="UTF-8"?>
<svg id="Layer_1" data-name="Layer 1" xmlns="http://www.w3.org/2000/svg" viewBox="0 0 450 450">
  <defs>
    <style>
      .cls-1 {
        stroke-linecap: round;
        stroke-linejoin: round;
      }

      .cls-1, .cls-2 {
        fill: #cc5cb4;
        stroke: #5e3d56;
        stroke-width: 10px;
      }

      .cls-2 {
        stroke-miterlimit: 10;
      }
    </style>
  </defs>
  <path class="cls-2" d="M156.39,209.89c1.92,20.79-8.58,30.66-22.86,31.98-14.28,1.32-26.92-6.41-28.84-27.2s8.09-38.72,22.37-40.04c14.28-1.32,27.41,14.47,29.33,35.26Z"/>
  <path class="cls-2" d="M221.73,173.45c-3.03,22.06-16.33,29.78-31.48,27.7-15.15-2.08-26.41-13.17-23.38-35.23,3.03-22.06,17.77-38.26,32.92-36.18s24.97,21.65,21.94,43.72Z"/>
  <path class="cls-2" d="M293.68,183.28c-2.82,20.55-15.22,27.74-29.33,25.8s-24.61-12.27-21.78-32.82c2.82-20.55,16.55-35.65,30.67-33.71,14.11,1.94,23.27,20.17,20.44,40.73Z"/>
  <path class="cls-2" d="M343.35,243.32c-6.06,21.16-20.15,26.85-34.68,22.69-14.53-4.16-24-16.59-17.94-37.75,6.06-21.16,22.75-34.95,37.28-30.79s21.4,24.69,15.35,45.85Z"/>
  <path class="cls-1" d="M140.22,267.19c10.52-9.68,23.57-20.32,39.37-30.63,13.36-8.72,26.09-15.52,37.49-20.82.81-.62,5.53-4.12,12.12-3.15,2.51.37,4.31,1.36,7.24,2.99,2.8,1.55,6.4,3.89,10.19,7.37,1.94,2.24,4.9,5.63,8.52,9.73,9.48,10.71,13.28,14.27,16.5,18.29,10.93,13.68,18.56,26.81,23.85,37.55,4.12,9.15,3.94,18.88-.92,25.07-1.07,1.36-4.11,5.26-9.57,6.48-2.48.55-5.19.51-8.01-.3-6.29-3.71-13.81-7.55-22.53-10.96-13.09-5.12-25.07-7.77-34.78-9.17l-4.31-.59c-7.87-.78-16.66-1.2-26.24-.97-14.25.35-26.86,2.1-37.46,4.26-1.15-.2-10.76-2.01-15.31-10.84-3.95-7.66-2.46-17.42,3.84-24.32Z"/>
</svg>